<?xml version="1.0" encoding="UTF-8"?>
<svg width="228px" height="24px" viewBox="0 0 228 24" version="1.1" xmlns="http://www.w3.org/2000/svg" xmlns:xlink="http://www.w3.org/1999/xlink">
    <!-- Generator: Sketch 48.1 (47250) - http://www.bohemiancoding.com/sketch -->
    <title>gen_logoHeader</title>
    <desc>Created with Sketch.</desc>
    <defs>
        <polygon id="path-1" points="8.00671287 11.9965248 8.00671287 0.149366337 0.0473118812 0.149366337 0.0473118812 11.9965248"></polygon>
        <polygon id="path-3" points="13.5255356 0 0 0 0 23.7029703 13.5255356 23.7029703 27.0510713 23.7029703 27.0510713 0"></polygon>
    </defs>
    <g id="BRAND-HEADER" stroke="none" stroke-width="1" fill="none" fill-rule="evenodd">
        <g id="gen_logoHeader">
            <g id="AR">
                <path d="M39.1233139,21.9680069 C35.4235812,21.9680069 33.8232545,19.2502545 33.8232545,15.9329673 C33.8232545,12.8156505 35.5550762,10.0967693 39.0185317,10.0967693 C40.0153733,10.0967693 42.4565911,10.3712347 42.4565911,11.1694228 C42.4565911,11.4941158 42.1670762,11.742997 41.826205,11.742997 C40.4352545,11.3189772 40.0678584,11.2441059 39.6477891,11.2441059 C37.155403,11.2441059 36.9193139,14.2867396 36.9193139,15.9576109 C36.9193139,19.0749277 37.6275812,20.7962149 39.5954921,20.7962149 C40.2514624,20.7962149 41.5378188,20.4713337 42.2460861,20.247096 C42.6659673,20.2724921 42.8762842,20.5215614 42.8762842,20.7962149 C42.8762842,20.9211257 42.8239871,21.045096 42.7449772,21.1700069 C41.878502,21.6188584 40.2781752,21.9680069 39.1233139,21.9680069" id="Fill-1" fill="#3A3A3A"></path>
                <path d="M165.565229,21.9680069 C161.865684,21.9680069 160.265357,19.2502545 160.265357,15.9329673 C160.265357,12.8156505 161.996991,10.0967693 165.460635,10.0967693 C166.457288,10.0967693 168.898506,10.3712347 168.898506,11.1694228 C168.898506,11.4941158 168.608991,11.742997 168.26812,11.742997 C166.877357,11.3189772 166.509773,11.2441059 166.089892,11.2441059 C163.597506,11.2441059 163.361229,14.2867396 163.361229,15.9576109 C163.361229,19.0749277 164.069684,20.7962149 166.037595,20.7962149 C166.693377,20.7962149 167.979734,20.4713337 168.688189,20.247096 C169.107882,20.2724921 169.318387,20.5215614 169.318387,20.7962149 C169.318387,20.9211257 169.264961,21.045096 169.186892,21.1700069 C168.320417,21.6188584 166.720278,21.9680069 165.565229,21.9680069" id="Fill-3" fill="#3A3A3A"></path>
                <path d="M175.174902,11.318902 C172.996674,11.318902 172.733684,14.6115455 172.733684,16.0077634 C172.733684,17.4297535 172.969961,20.771496 175.122605,20.771496 C177.274308,20.771496 177.535981,17.4297535 177.535981,16.0077634 C177.535981,14.6115455 177.299892,11.318902 175.174902,11.318902 M175.148189,21.9925752 C171.34405,21.9925752 169.664526,19.3741495 169.664526,16.0324069 C169.664526,12.7162485 171.34405,10.0966941 175.148189,10.0966941 C178.926932,10.0966941 180.606456,12.7162485 180.606456,16.0324069 C180.606456,19.3741495 178.926932,21.9925752 175.148189,21.9925752" id="Fill-5" fill="#3A3A3A"></path>
                <path d="M50.973501,19.1315327 C50.3457485,19.8520277 49.3974416,20.4978396 48.4824317,20.4978396 C46.3642139,20.4978396 46.2142832,17.368295 46.2142832,15.9769683 C46.2142832,14.5863941 46.4496198,11.307295 48.5939861,11.307295 C50.8429465,11.307295 50.973501,13.9900574 50.973501,15.3810079 L50.973501,19.1315327 Z M57.924303,13.7560376 C57.6820059,17.669097 56.0314515,20.5202257 54.6523525,20.5202257 C54.0607188,20.5202257 54.0588376,20.2316515 54.0588376,18.9082356 L54.0588376,16.3048594 C54.0763327,14.5049386 54.0345703,11.1364832 54.0345703,11.1364832 C54.0138772,10.5963941 54.1288178,10.0969386 53.516303,10.0948693 L51.4287485,10.0879089 C51.1270059,10.0869683 50.9815901,10.2831762 50.9302337,10.5113644 C50.929105,10.5164436 50.9240257,10.5194535 50.9191347,10.5173842 C50.261095,10.2436713 49.4997782,10.0815129 48.6201347,10.0905426 C44.8287881,10.1298594 43.1549069,12.6986218 43.1549069,16.0019881 C43.1549069,18.7092059 44.4623327,21.9384535 47.7570455,21.9384535 C49.033996,21.9384535 50.2592139,21.2474931 51.2511644,20.1855624 C51.2556792,20.1804832 51.2624515,20.1829287 51.2650851,20.1889485 C51.9268871,21.7407406 52.962105,21.9713743 54.1030455,21.9694931 C58.1321743,21.963097 59.4721446,15.4558792 59.4721446,15.4558792 C59.4721446,15.4558792 57.9248673,13.7464436 57.924303,13.7560376 Z" id="Fill-7" fill="#3A3A3A"></path>
                <path d="M60.7819594,13.4964149 C60.7819594,13.4964149 60.7891079,13.4977317 60.7904248,13.4971673 C60.113197,12.9384545 60.1143257,11.593405 60.1882564,10.7696327 C60.2209891,10.4043059 59.9359891,10.0899594 59.5693455,10.0914644 C59.0973554,10.0939099 58.4899198,10.0961673 58.0739891,10.0950386 C57.7692366,10.0944743 57.4970287,10.2950089 57.4200881,10.5901673 C57.2069495,11.4075436 57.2218109,12.4017515 57.2746723,12.7627515 C57.454702,13.9915436 58.1046525,15.0006129 59.3945832,15.8661475 C60.0686129,16.319702 62.5162267,17.6933455 62.703405,18.9714248 C62.8689495,20.1018307 62.024296,20.8343653 61.1642168,20.9037812 C60.5138901,20.9564545 59.9162366,20.3601178 59.6404545,19.9342168 C59.5159198,19.7421475 59.2561277,19.6930485 59.0781673,19.8371475 C59.0593554,19.8523851 59.0405436,19.8676228 59.0221079,19.8830485 C58.8055832,20.0619495 58.7339099,20.3661376 58.8595733,20.6170881 C59.1257614,21.1481475 59.7836129,21.9608208 61.318098,21.9608208 C63.2530881,21.9608208 65.2106525,20.2107515 64.861504,17.8269099 C64.6154446,16.1468208 62.5380485,14.7355535 60.7819594,13.4964149" id="Fill-9" fill="#3A3A3A"></path>
                <path d="M139.352415,11.3282703 C137.17193,11.3282703 136.908751,14.622795 136.908751,16.0201416 C136.908751,17.442696 137.145405,20.7868842 139.299742,20.7868842 C141.454266,20.7868842 141.716692,17.442696 141.716692,16.0201416 C141.716692,14.622795 141.480415,11.3282703 139.352415,11.3282703 M139.325702,22.0098446 C135.516484,22.0098446 133.83489,19.3895376 133.83489,16.0451614 C133.83489,12.7259931 135.516484,10.105498 139.325702,10.105498 C143.109712,10.105498 144.791118,12.7259931 144.791118,16.0451614 C144.791118,19.3895376 143.109712,22.0098446 139.325702,22.0098446" id="Fill-11" fill="#3A3A3A"></path>
                <path d="M124.10341,18.965104 C124.10341,20.437698 124.917776,20.4935693 126.021469,20.4935693 C126.888697,20.4935693 127.912816,20.193896 128.727182,19.894599 C129.147816,19.9194307 129.331796,20.5125693 129.331796,20.762203 C129.331796,21.585599 126.23141,22.009995 124.865103,22.009995 C121.344459,22.009995 121.003024,20.3626386 121.003024,17.6676485 L121.003024,13.6492426 C121.003024,12.126797 120.503945,11.5776782 119.820509,11.5776782 C119.084964,11.5776782 118.112954,12.1768366 117.508341,12.9255495 L117.508341,21.397104 C117.508341,21.7214208 117.219578,21.9710545 116.904291,21.9710545 L115.012568,21.9710545 C114.697093,21.9710545 114.408519,21.7214208 114.408519,21.397104 L114.408519,10.6683119 C114.408519,10.343995 114.697093,10.0943614 115.012568,10.0943614 L116.904291,10.0943614 C117.219578,10.0943614 117.508341,10.343995 117.508341,10.6683119 L117.508341,11.5776782 C118.507063,10.6047277 119.4264,10.1054604 120.84538,10.1054604 C123.893093,10.1054604 124.10341,12.126797 124.10341,14.4980347 L124.10341,18.965104 Z" id="Fill-13" fill="#3A3A3A"></path>
                <path d="M130.992528,11.5671059 C130.757191,14.2250366 130.678746,16.1624723 130.678746,18.894898 C130.678746,20.3601554 131.515122,20.4905218 132.587587,20.4905218 C133.424151,20.4905218 134.444132,20.1925416 135.254548,19.8943733 C135.672736,19.9190168 135.829815,20.4348386 135.829815,20.6831554 C135.829815,21.5027891 132.796587,21.9249277 131.436676,21.9249277 C128.273082,21.9249277 127.671478,20.6831554 127.671478,16.9572743 C127.671478,15.1934723 127.85433,13.3803832 127.9593,11.5671059 L126.808389,11.5671059 C126.521132,11.4433238 126.380983,11.0921059 126.380983,10.794502 C126.380983,10.4963337 126.547092,10.1985416 126.808389,10.0740069 L128.14234,10.0740069 L129.135607,7.36961089 C129.240577,7.04661089 129.449389,6.77346238 129.763171,6.77346238 L130.809112,6.77346238 C131.122894,6.77346238 131.410904,6.94747228 131.410904,7.24507624 C131.30631,8.33804653 131.20134,9.10538317 131.097122,10.0740069 L133.319746,10.0740069 C133.581043,10.1985416 133.807161,10.4963337 133.807161,10.794502 C133.807161,11.0921059 133.633528,11.4433238 133.319746,11.5671059 L130.992528,11.5671059 Z" id="Fill-15" fill="#3A3A3A"></path>
                <path d="M73.5385782,19.1897743 C72.9078158,19.9136554 71.9358059,20.5624772 71.0164693,20.5624772 C68.8880931,20.5624772 68.756598,17.4178832 68.756598,16.0201604 C68.756598,14.6228139 68.9932515,11.3282891 71.1475881,11.3282891 C73.4074594,11.3282891 73.5385782,14.0236554 73.5385782,15.4213782 L73.5385782,19.1897743 Z M81.2631129,19.8722693 C80.4483703,20.1715663 79.4238752,20.5449822 78.5568356,20.5449822 C77.4794792,20.5449822 76.6387762,20.4377545 76.6387762,18.9651604 L76.6387762,16.3493683 C76.6562713,14.5409822 76.6145089,11.1563485 76.6145089,11.1563485 C76.5936277,10.6138139 76.7091327,10.1491604 76.0934198,10.1472792 L73.9960832,10.1401307 C73.688697,10.1391901 73.5425287,10.3037941 73.4930535,10.5381901 C72.8297465,10.2607149 72.0618455,10.096299 71.1741129,10.1055168 C67.3647069,10.1450218 65.6827366,12.7260119 65.6827366,16.0451802 C65.6827366,18.7653782 66.9963703,22.0098634 70.3068851,22.0098634 C71.5941822,22.0098634 72.8291822,21.311002 73.8275287,20.2377842 C74.195301,21.5608238 75.7455881,22.0098634 77.4006574,22.0098634 C79.0297663,22.0098634 80.5271921,21.6857347 81.7360436,21.0865762 C81.8148653,20.9868733 81.8673505,20.8869822 81.8673505,20.7620713 C81.8673505,20.4876059 81.6833703,19.897101 81.2631129,19.8722693 Z" id="Fill-17" fill="#3A3A3A"></path>
                <path d="M95.6155436,14.4980158 L95.6155436,18.9650851 C95.6155436,20.4376792 96.4308505,20.5659762 97.533603,20.5336198 C98.7302267,20.4986297 99.3564743,20.150798 100.075464,19.8723822 C100.495722,19.8970257 100.844306,20.5125505 100.844306,20.7621842 C100.844306,21.5855802 97.7437317,22.0099762 96.3776129,22.0099762 C92.8567812,22.0099762 92.5155337,20.3626198 92.5155337,17.6676297 L92.5155337,13.6492238 C92.5155337,12.151798 92.3050287,11.5778475 91.4906624,11.5778475 C90.8339396,11.5778475 90.0718703,12.151798 89.4414842,12.9255307 L89.4414842,21.3970851 C89.4414842,21.721402 89.1525337,21.9712238 88.8107218,21.9712238 L86.9716723,21.9712238 C86.6300485,21.9712238 86.341098,21.721402 86.341098,21.3970851 L86.341098,13.3497386 C86.341098,12.052095 85.9469891,11.5778475 85.3689,11.5778475 C84.5808703,11.5778475 83.8974347,12.1768178 83.293197,12.9255307 L83.293197,21.3970851 C83.293197,21.721402 83.0042465,21.9712238 82.6628109,21.9712238 L80.7972366,21.9712238 C80.455801,21.9712238 80.1666624,21.721402 80.1666624,21.3970851 L80.1499198,10.6684812 C80.1499198,10.3439762 80.4981277,10.0943426 80.8393752,10.0943426 L82.7049495,10.0943426 C83.0463851,10.0943426 83.3353356,10.3439762 83.3353356,10.6684812 L83.293197,11.5778475 C84.0550782,10.7544515 84.9747911,10.1054416 86.3937713,10.1054416 C87.6547317,10.1054416 88.8895436,10.5048178 89.2573158,11.8276693 C90.0982069,10.8291347 91.070405,10.1054416 92.5414941,10.1054416 C95.4579,10.1054416 95.6155436,11.8773327 95.6155436,14.4980158" id="Fill-19" fill="#3A3A3A"></path>
                <path d="M107.787583,18.2789406 C109.488742,16.5779703 110.289375,14.5968911 110.289375,13.1540198 C110.289375,12.2333663 109.899405,11.439505 108.860989,11.439505 C108.049445,11.439505 106.976039,12.956495 106.976039,14.8967525 C106.976039,16.015495 107.263672,17.2343168 107.787583,18.2789406 M104.278979,15.7916337 C104.278979,12.4591089 106.399454,10.0963366 108.677761,10.0963366 C111.216801,10.0963366 112.18787,11.9940792 112.18787,13.0586436 C112.18787,15.2220099 111.63292,16.8496139 108.599128,19.4482871 C109.384712,20.4180396 111.180494,20.5198119 112.175831,20.5198119 C113.249049,20.5198119 114.322831,20.1465842 115.265118,19.7240693 C115.63195,19.7240693 115.841514,19.9727624 115.841514,20.2713069 C115.841514,20.8439406 112.67792,21.9598614 110.458118,21.9598614 C109.123227,21.9598614 107.761058,21.6613168 106.687652,20.9154257 C105.090524,19.7959307 104.278979,17.8065743 104.278979,15.7916337" id="Fill-21" fill="#3A3A3A"></path>
                <path d="M198.270738,14.5053525 L198.270738,18.9893525 C198.270738,20.467402 199.088302,20.8430752 200.195569,20.8430752 C200.703114,20.8430752 201.045678,21.9877782 199.035441,21.9877782 C195.501629,21.9877782 195.158876,20.3921545 195.158876,17.6870059 L195.158876,13.6535505 C195.158876,12.1504812 194.947995,11.5748376 194.130243,11.5748376 C193.471074,11.5748376 192.706371,12.1504812 192.07354,12.9270356 L192.07354,21.4151446 C192.07354,21.7411545 191.78346,21.9919168 191.44052,21.9919168 L189.59451,21.9919168 C189.251946,21.9919168 188.961678,21.7411545 188.961678,21.4151446 L188.961678,13.3529366 C188.961678,12.0505901 188.566064,11.5748376 187.985718,11.5748376 C187.194866,11.5748376 186.508985,12.1758772 185.902678,12.9270356 L185.902678,21.4151446 C185.902678,21.7411545 185.612599,21.9919168 185.269658,21.9919168 L183.397312,21.9919168 C183.054371,21.9919168 182.764292,21.7411545 182.764292,21.4151446 L182.764292,10.7044119 C182.764292,10.3791545 183.054371,10.1285802 183.397312,10.1285802 L185.269658,10.1285802 C185.612599,10.1285802 185.902678,10.3791545 185.902678,10.7044119 L185.902678,11.5748376 C186.667193,10.7476792 187.59048,10.0964119 189.014351,10.0964119 C190.280203,10.0964119 191.51953,10.4972931 191.888807,11.8250356 C192.732896,10.8231149 193.70848,10.0964119 195.185401,10.0964119 C198.112342,10.0964119 198.270738,11.8754515 198.270738,14.5053525" id="Fill-23" fill="#3A3A3A"></path>
                <path d="M157.242081,21.9516594 C156.444646,21.9516594 155.724339,21.2827089 155.724339,20.4852733 C155.724339,19.6878376 156.444646,19.0188871 157.242081,19.0188871 C158.065289,19.0188871 158.785784,19.6878376 158.785784,20.4852733 C158.785784,21.2827089 158.065289,21.9516594 157.242081,21.9516594" id="Fill-25" fill="#3A3A3A"></path>
                <path d="M203.595196,21.9516594 C202.79776,21.9516594 202.077453,21.2827089 202.077453,20.4852733 C202.077453,19.6878376 202.79776,19.0188871 203.595196,19.0188871 C204.418404,19.0188871 205.138899,19.6878376 205.138899,20.4852733 C205.138899,21.2827089 204.418404,21.9516594 203.595196,21.9516594" id="Fill-27" fill="#3A3A3A"></path>
                <path d="M106.275465,19.9292129 C106.694782,19.9540446 106.851861,20.5056089 106.851861,20.7548663 C106.851861,21.5763812 103.811297,21.9996485 102.448188,21.9996485 C99.2501683,21.9996485 98.6997327,20.7548663 98.6997327,17.0197673 C98.6997327,15.1274802 98.7781782,12.6264406 99.040604,10.684302 C99.092901,10.3355297 99.276505,10.1116683 99.6694851,10.1116683 L101.42595,10.1116683 C101.79297,10.1116683 102.054832,10.3355297 102.054832,10.6344505 C101.766634,13.5476584 101.635703,15.9986584 101.635703,18.9869257 C101.635703,20.4559455 102.526822,20.5268663 103.601733,20.5268663 C104.440554,20.5268663 105.462792,20.2279455 106.275465,19.9292129" id="Fill-29" fill="#3A3A3A"></path>
                <path d="M100.81526,8.28990693 C100.019706,8.28990693 99.300904,7.6226495 99.300904,6.82690693 C99.300904,6.03116436 100.019706,5.36390693 100.81526,5.36390693 C101.636587,5.36390693 102.355577,6.03116436 102.355577,6.82690693 C102.355577,7.6226495 101.636587,8.28990693 100.81526,8.28990693" id="Fill-31" fill="#3A3A3A"></path>
                <path d="M213.67131,19.1759851 C213.040736,19.9000545 212.068538,20.5488762 211.149201,20.5488762 C209.021013,20.5488762 208.88933,17.4042822 208.88933,16.0065594 C208.88933,14.6092129 209.125983,11.3145 211.28032,11.3145 C213.540191,11.3145 213.67131,14.0100545 213.67131,15.4077772 L213.67131,19.1759851 Z M221.396033,19.8586683 C220.581102,20.1579653 219.556607,20.5313812 218.689567,20.5313812 C217.612211,20.5313812 216.771508,20.4239653 216.771508,18.9515594 L216.771508,16.3357673 C216.789003,14.5273812 216.747241,11.1427475 216.747241,11.1427475 C216.726359,10.6000248 216.841864,10.1353713 216.226151,10.1334901 L214.128815,10.1265297 C213.821429,10.1255891 213.67526,10.2901931 213.625785,10.5245891 C212.962478,10.2471139 212.194577,10.082698 211.306845,10.0919158 C207.497439,10.1314208 205.815656,12.7124109 205.815656,16.0315792 C205.815656,18.7517772 207.129102,21.9962624 210.439617,21.9962624 C211.727102,21.9962624 212.961914,21.297401 213.96026,20.2241832 C214.328033,21.5470347 215.87832,21.9962624 217.533389,21.9962624 C219.162498,21.9962624 220.659924,21.6721337 221.868775,21.0727871 C221.947597,20.9730842 222.000082,20.8731931 222.000082,20.7484703 C222.000082,20.474005 221.816102,19.8835 221.396033,19.8586683 Z" id="Fill-33" fill="#3A3A3A"></path>
                <g id="Group-37" transform="translate(219.910891, 9.970297)">
                    <mask id="mask-2" fill="white">
                        <use xlink:href="#path-1"></use>
                    </mask>
                    <g id="Clip-36"></g>
                    <path d="M7.44771782,2.27341584 C7.42100495,2.42315842 7.26392574,2.52229703 7.10590594,2.52229703 C7.02783663,2.52229703 6.94882673,2.49784158 6.89634158,2.44761386 C6.3974505,1.92426733 5.79396535,1.57474257 5.16470792,1.57474257 C4.50873762,1.57474257 3.82605446,1.97430693 3.14337129,2.94650495 L3.14337129,11.4543663 C3.14337129,11.7790594 2.91330198,11.9965248 2.57243069,11.9965248 L0.682589109,11.9965248 C0.36730198,11.9965248 0.0473118812,11.7790594 0.0473118812,11.4543663 L0.0473118812,0.729712871 C0.0473118812,0.405960396 0.33569802,0.157079208 0.650985149,0.157079208 L2.54082673,0.157079208 C3.09107426,0.157079208 3.14337129,0.580158416 3.14337129,1.05459406 L3.14337129,1.57474257 C3.90506436,0.602544554 4.98975743,0.149366337 6.24940099,0.149366337 C6.74716337,0.149366337 8.00680693,0.298920792 8.00680693,0.67290099 C8.00680693,0.697356436 8.00680693,0.723128713 7.98103465,0.772227723 L7.44771782,2.27341584 Z" id="Fill-35" fill="#3A3A3A" mask="url(#mask-2)"></path>
                </g>
                <path d="M148.857739,14.6534208 C148.479432,14.3844109 148.09962,14.1174703 147.700432,13.8700941 L147.213204,14.0691238 C146.850887,14.7260347 145.875303,15.8191931 144.15665,16.2639059 C143.004046,16.5620743 142.889669,17.2613119 142.942531,17.2641337 C146.523372,17.4486782 148.253689,15.5362624 148.857739,14.6534208" id="Fill-38" fill="#3A3A3A"></path>
                <path d="M150.201584,13.6083079 C150.203089,13.6083079 150.208356,13.6107535 150.209673,13.6105653 C149.777,13.1171297 149.804277,11.906397 149.931069,11.0000406 C149.987693,10.5935158 149.664881,10.232704 149.254594,10.232704 L147.914812,10.232704 C147.488723,10.232704 147.119446,10.5338822 147.040059,10.9526347 C146.930762,11.5288426 146.908564,12.1080604 146.90499,12.3396347 C146.885614,13.5639119 147.358356,14.648605 148.476723,15.6947337 C149.060832,16.2427238 151.225139,17.9664564 151.205198,19.2400208 C151.187327,20.3661 150.122198,20.9244366 149.274158,20.8559614 C148.51999,20.795199 147.776356,20.4712584 147.43699,19.6047832 C147.355911,19.3980406 147.124713,19.2932584 146.915149,19.3668129 C146.632218,19.466704 146.456703,19.762803 146.527436,20.0543871 C146.763337,21.0273376 147.616832,21.642298 149.107109,21.8844069 C150.989614,22.1904762 153.448891,20.8424168 153.486139,18.4674168 C153.512475,16.7939119 151.714248,15.092001 150.201584,13.6083079" id="Fill-40" fill="#3A3A3A"></path>
                <g id="Group-44">
                    <mask id="mask-4" fill="white">
                        <use xlink:href="#path-3"></use>
                    </mask>
                    <g id="Clip-43"></g>
                    <path d="M24.7042891,4.39708911 C24.7042891,9.19938614 19.475903,18.4452376 16.6802693,22.0454554 C15.5252198,20.1403762 13.255002,18.2394356 10.8553584,16.2301386 C7.01829901,13.0170693 3.05087327,9.69507921 2.76963564,5.79462376 C2.6691802,4.40254455 2.97769505,3.31089109 3.68596238,2.54976238 C4.35999208,1.82531683 5.25506139,1.56740594 5.86814059,1.56740594 C7.79090297,1.56740594 9.85456634,5.34972277 11.5130218,8.38915842 C12.9037842,10.9383564 13.7935861,12.5008713 14.5253683,12.5008713 C14.8489327,12.5008713 15.2396554,12.1543564 15.2396554,11.7239406 C15.2396554,10.6505347 19.2774376,2.06084158 23.1818436,2.06084158 C23.3376059,2.06084158 24.7042891,2.12649505 24.7042891,4.39708911 M22.4440416,0.502465347 C19.7462297,0.502465347 16.4123881,3.13123762 14.4388337,6.78789109 C12.6535861,2.96193069 8.97830891,0 5.97235842,0 C2.0931604,0 -3.76237624e-05,3.06671287 -3.76237624e-05,5.95207921 C-3.76237624e-05,13.1297525 9.3381802,18.9548515 14.3549327,22.0842079 C15.4061406,22.7399901 16.2363089,23.2576931 16.7602198,23.6493564 L16.8318931,23.7029703 L16.9082693,23.6557525 C23.439002,19.5989703 27.0510713,10.2778713 27.0510713,5.38584158 C27.0510713,2.3279703 25.3286554,0.502465347 22.4440416,0.502465347" id="Fill-42" fill="#F76C6F" mask="url(#mask-4)"></path>
                </g>
            </g>
        </g>
    </g>
</svg>